<svg width="200" height="200" xmlns="http://www.w3.org/2000/svg">

 <g>
  <title>Layer 1</title>
  <path id="svg_1" d="m100,200c-55.24862,0 -100,-44.75138 -100,-100c0,-55.24862 44.75138,-100 100,-100c55.24862,0 100,44.75138 100,100c0,55.24862 -44.75138,100 -100,100z" opacity="undefined" stroke-width="0" fill="#39588f"/>
  <g>

   <metadata fill="#ffffff" id="svg_6">image/svg+xml</metadata>
   <g id="svg_4" transform="translate(-50.3262, -94.0526)">
    <path stroke-width="0.08467" fill="#ffffff" d="m188.3711,240.36939c-2.11444,-0.44267 -3.12733,-0.95094 -4.08773,-2.0513c-0.50212,-0.57529 -0.68327,-0.88084 -0.77815,-1.31254c-0.16031,-0.72945 -0.1502,-1.61705 0.02483,-2.17851c0.25633,-0.82228 1.37005,-2.57122 2.39372,-3.75904c1.09027,-1.26509 1.67949,-1.75564 2.2477,-1.87128c0.31635,-0.06436 0.41232,-0.01437 0.81005,0.42636c0.24815,0.27467 0.44971,0.56371 0.4479,0.64229c-0.00125,0.07858 -0.22628,0.33446 -0.49882,0.5686c-1.91674,1.6466 -2.20084,1.95386 -2.51066,2.71524c-0.30327,0.74527 -0.91517,2.66006 -0.91517,2.86378c0,0.14007 1.30372,1.00069 2.05987,1.35977c0.57105,0.27117 0.63533,0.2769 1.41888,0.12627c1.07902,-0.20737 3.03213,-1.01527 4.21787,-1.74473c0.11673,-0.07183 0.45118,-0.26499 0.74313,-0.42922c1.28235,-0.7214 2.53245,-1.78741 3.06625,-2.61471l0.33088,-0.51281l0.03197,0.63446c0.04451,0.88318 -0.37188,2.19888 -0.99953,3.15837c-0.32552,0.49761 -0.31888,0.60155 0.05241,0.82155c0.70551,0.41799 1.25431,0.55139 2.27553,0.55312c1.95992,0.00287 3.00765,-0.81299 3.5905,-2.79743c0.18541,-0.63123 0.23138,-1.06841 0.23007,-2.18763c-0.00105,-0.76931 -0.05843,-1.63262 -0.12782,-1.91847c-0.06946,-0.28585 -0.0973,-0.57321 -0.06207,-0.63856c0.03523,-0.06536 0.42698,-0.1188 0.87048,-0.1188c0.80626,0 0.80642,0.00007 1.22141,0.49988l0.41504,0.49988l-0.03335,2.87535c-0.03649,3.14332 -0.05517,3.24762 -0.72176,4.02887c-0.37853,0.44366 -2.04492,1.70478 -2.25263,1.70478c-0.0815,0 -0.20803,0.06838 -0.28107,0.15203c-0.20029,0.22933 -2.84167,0.18938 -3.81767,-0.05775c-0.42697,-0.10803 -1.048,-0.37887 -1.38009,-0.60171c-1.18668,-0.79628 -1.16624,-0.78921 -1.54221,-0.53317c-1.01859,0.69365 -2.16879,1.28629 -2.85204,1.46953c-0.7423,0.19905 -3.03045,0.34413 -3.5877,0.22747l-0.00004,0.00004zm-101.27658,-0.23945c-1.33494,-0.19626 -1.90259,-0.3366 -3.02597,-0.74812c-4.12281,-1.51028 -6.13659,-4.89498 -5.08377,-8.54467c0.74533,-2.58374 3.20338,-4.48256 6.99466,-5.40333c1.68818,-0.40998 2.68434,-0.49888 5.57342,-0.4973c2.6859,0.00144 3.85569,0.08706 5.78574,0.423c1.57019,0.27337 2.7934,0.50605 3.18481,0.60582c0.23356,0.05947 0.78294,0.19756 1.22085,0.30671c1.20487,0.30033 2.37722,0.63399 3.58166,1.01936c0.78099,0.24989 1.11314,0.30954 1.18015,0.21194c0.12462,-0.1815 1.28832,-2.89678 1.5699,-3.66309c0.94132,-2.56173 1.91247,-6.5626 2.849,-11.73733c0.28777,-1.59006 0.53072,-2.887 0.69493,-3.70974c0.0534,-0.26759 0.21968,-1.17069 0.36948,-2.00691c0.26495,-1.47904 0.49555,-2.71752 0.69073,-3.70974c0.05264,-0.26758 0.29027,-1.55383 0.52809,-2.85831c0.23781,-1.3045 0.47651,-2.59073 0.53045,-2.85832c0.05394,-0.26759 0.24581,-1.30753 0.42639,-2.31099c0.32923,-1.82951 0.43949,-2.41376 0.63697,-3.37524c0.05839,-0.28431 0.20369,-1.0369 0.32287,-1.67242c1.73567,-9.25526 3.76917,-15.74055 6.30834,-20.11876c3.54107,-6.10571 8.19677,-9.78777 12.39107,-9.79975c2.50052,-0.00718 4.8219,1.20898 6.09268,3.19177c2.25666,3.5211 2.53224,8.28431 0.90589,15.65835c-0.57994,2.62946 -1.36353,5.39844 -1.91033,6.75049c-0.10822,0.26759 -0.23272,0.62336 -0.27668,0.7906c-0.12846,0.48874 -0.24504,0.58243 -0.82894,0.6662c-0.3036,0.04353 -0.81475,0.12843 -1.13589,0.18861c-1.92434,0.36062 -2.78553,0.49461 -2.8326,0.44068c-0.02934,-0.03362 0.30444,-0.89987 0.74172,-1.92501c2.16438,-5.07411 3.74307,-10.99299 4.10725,-15.39904c0.26028,-3.1491 -0.40581,-6.14203 -1.66035,-7.46043c-1.12001,-1.17704 -3.02282,-1.61072 -4.93443,-1.12464c-3.1662,0.80511 -5.799,3.9357 -7.91355,9.4098c-0.49495,1.28128 -1.22026,3.54779 -1.42071,4.43952c-0.04511,0.20069 -0.2794,1.24063 -0.52063,2.31097c-0.24124,1.07035 -0.47911,2.16503 -0.52862,2.43262c-0.0495,0.26758 -0.17204,0.89703 -0.27233,1.39875c-0.10028,0.50172 -0.22054,1.10379 -0.26727,1.33794c-0.04673,0.23413 -0.16028,0.8362 -0.25235,1.33792c-0.09207,0.50174 -0.28707,1.54167 -0.43335,2.31099c-0.14629,0.76931 -0.3855,2.05556 -0.53161,2.85832c-0.1461,0.80276 -0.33932,1.84271 -0.42939,2.31097c-0.09005,0.46828 -0.20884,1.09771 -0.26396,1.39876c-0.05512,0.30103 -0.17382,0.93047 -0.26378,1.39875c-0.08995,0.46828 -0.2384,1.26192 -0.32987,1.76364c-0.17846,0.97887 -0.41996,2.27028 -0.84158,4.50034c-0.14546,0.76931 -0.3339,1.78188 -0.41878,2.25016c-0.08487,0.46828 -0.2472,1.34402 -0.36071,1.94608c-0.11351,0.60208 -0.28295,1.50518 -0.37651,2.00691c-0.09356,0.50174 -0.24114,1.26801 -0.32795,1.70283c-0.0868,0.43484 -0.2055,1.0369 -0.26376,1.33794c-0.2677,1.38302 -0.48511,2.37377 -1.01421,4.62196c-1.30143,5.52982 -3.08025,10.096 -5.15993,13.24543c-0.28268,0.42807 -0.51396,0.81862 -0.51396,0.86788c0,0.04927 1.06294,0.48339 2.36206,0.96473c1.29914,0.48134 2.48151,0.92215 2.62747,0.97959c0.47282,0.18601 3.00325,1.07316 3.82177,1.33988c0.43791,0.14265 0.93952,0.30669 1.11468,0.36446c3.63215,1.1976 6.69164,1.91324 9.84017,2.30171c1.87521,0.23135 4.39811,0.08993 6.69489,-0.37518c0.39445,-0.07987 0.73999,-0.11909 0.76789,-0.0872c0.04694,0.05373 -0.492,1.52886 -1.2294,3.36482c-0.16981,0.42277 -0.30874,0.7906 -0.30874,0.8174c0,0.24874 -0.5872,1.42173 -0.77151,1.54119c-0.33063,0.21428 -4.49585,0.21131 -5.70426,-0.00431c-3.27327,-0.58341 -5.0284,-0.98757 -7.4843,-1.72343c-2.34555,-0.7028 -3.28858,-1.00957 -5.01608,-1.63168c-0.48171,-0.17348 -1.258,-0.45225 -1.72511,-0.61949c-0.4671,-0.16725 -1.23146,-0.44091 -1.69856,-0.60814c-0.46711,-0.16725 -1.24341,-0.44611 -1.72511,-0.61969c-1.02904,-0.37085 -3.48472,-1.21013 -4.34268,-1.4842l-0.60052,-0.19184l-0.88572,0.85581c-1.50208,1.45136 -3.67106,3.09013 -4.81425,3.63739c-0.2097,0.10042 -0.70141,0.3515 -1.09269,0.55805c-0.89527,0.47259 -3.22045,1.35554 -4.26781,1.62063c-2.50128,0.6331 -5.54877,0.81944 -7.85546,0.48032l0,0.0003zm5.14848,-1.58012c1.58122,-0.23759 2.35695,-0.44091 3.76858,-0.98776c1.10783,-0.42915 3.12045,-1.50872 4.03409,-2.16387c1.50926,-1.08227 3.55059,-3.1154 3.33941,-3.32601c-0.05583,-0.05574 -0.31649,-0.17184 -0.57923,-0.25812c-0.26275,-0.08634 -0.59715,-0.20089 -0.74313,-0.25468c-0.14597,-0.05373 -0.55204,-0.19144 -0.90237,-0.3059c-0.35033,-0.11449 -0.82805,-0.27701 -1.0616,-0.36123c-0.39628,-0.14294 -4.29636,-1.24677 -5.3611,-1.51741c-2.75215,-0.69953 -6.10083,-1.0483 -8.17434,-0.85136c-3.66359,0.34794 -5.56345,1.50416 -6.03352,3.67187c-0.16392,0.75585 -0.15628,1.08812 0.04299,1.87349c0.31612,1.2459 1.24826,2.2884 2.85879,3.19728c0.78427,0.44258 1.0235,0.54456 2.07013,0.88249c1.68275,0.5433 4.62872,0.71863 6.74129,0.40121zm90.92623,0.32547c-0.08764,-0.05531 -0.82805,-0.30605 -1.64548,-0.55729c-6.1016,-1.87539 -7.73577,-2.6088 -8.78902,-3.94452c-0.59537,-0.75503 -0.55398,-1.13453 0.23642,-2.16805c2.4863,-3.25102 4.57475,-5.03103 6.83588,-5.82624l0.61879,-0.21764l-0.03498,-0.67413l-0.03498,-0.67414l0.60396,-0.0362c0.6991,-0.04195 0.7777,0.05042 0.94234,1.1086c0.32417,2.08345 0.24573,2.47124 -0.40649,2.00941c-0.7334,-0.51931 -1.84195,-0.24871 -3.00316,0.73307c-0.38258,0.32346 -0.76595,0.74685 -0.85192,0.94087c-0.15925,0.35933 -0.61558,1.18592 -1.43699,2.60291c-0.57468,0.99139 -0.74799,1.52048 -0.57586,1.75812c0.19222,0.26535 1.38707,0.94245 1.54253,0.8741c0.07749,-0.03405 0.19536,-0.45199 0.26815,-0.95123c0.19496,-1.33706 0.48689,-2.10018 1.15009,-3.0064c0.74892,-1.02333 1.2611,-1.54164 1.75892,-1.77994c0.34801,-0.1666 0.43681,-0.16621 0.87405,0.00431c0.96053,0.37362 0.94652,0.31392 0.32167,1.37013c-0.7346,1.2417 -1.37926,2.69152 -1.6544,3.72064c-0.29789,1.11424 -0.28715,1.36578 0.06896,1.61511c1.81484,1.27053 3.92004,3.22499 3.45022,3.20317c-0.04376,-0.00144 -0.15128,-0.04899 -0.23886,-0.10415l0.00018,-0.00052zm-46.70834,-0.22659c0.00251,-0.10113 0.73894,-1.00671 2.74539,-3.37555c2.78885,-3.29251 9.88548,-12.31595 9.88548,-12.56948c0,-0.06278 -0.31052,-0.86282 -0.69004,-1.77793c-0.37952,-0.91513 -0.69004,-1.68114 -0.69004,-1.70225c0,-0.02112 -0.20927,-0.55087 -0.46505,-1.17726c-0.25578,-0.6264 -0.58548,-1.43994 -0.73266,-1.80787c-0.14719,-0.36794 -0.46719,-1.16157 -0.71112,-1.76364c-0.24393,-0.60207 -0.54085,-1.34098 -0.65986,-1.64202c-0.11899,-0.30103 -0.42574,-1.05983 -0.68165,-1.68622c-0.25591,-0.62639 -0.4653,-1.15351 -0.4653,-1.17138c0,-0.01781 -0.28755,-0.72747 -0.63901,-1.5769c-1.00958,-2.44008 -0.98866,-2.36667 -0.71081,-2.49292c0.12932,-0.05876 0.59343,-0.28022 1.03134,-0.4921c0.43791,-0.21189 1.14643,-0.54179 1.5745,-0.73311l0.77828,-0.34784l0.69041,1.66558c0.37973,0.91607 0.8527,2.0561 1.05106,2.53335c0.19836,0.47729 0.59477,1.43512 0.88091,2.12854c0.28614,0.69342 0.76967,1.86283 1.07451,2.5987c0.30484,0.73586 0.68818,1.66634 0.85187,2.06772c1.42915,3.50451 1.42444,3.4952 1.65152,3.25953c0.62011,-0.6435 5.89215,-7.88015 9.21979,-12.6555l0.52973,-0.76019l1.73898,0c1.04864,0 1.72494,0.04568 1.7036,0.11521c-0.01943,0.06335 -0.41781,0.56964 -0.88523,1.12508c-1.25429,1.49053 -3.59723,4.37147 -5.51985,6.78735c-0.93167,1.17069 -1.90995,2.3999 -2.17395,2.73156c-0.264,0.33166 -0.8144,1.01695 -1.22312,1.52288c-1.05629,1.30753 -2.42049,3.04827 -2.56168,3.26871c-0.13173,0.20572 -0.09818,0.31393 0.70388,2.26809c0.2471,0.60207 0.6285,1.53254 0.84755,2.06772c0.21905,0.53517 0.61363,1.493 0.87684,2.12851c0.26321,0.63553 0.62273,1.51126 0.79895,1.94608c0.17622,0.43482 0.55804,1.36529 0.84851,2.0677c0.29047,0.70241 0.70759,1.71498 0.92694,2.25016c1.03687,2.52968 1.27456,3.11033 1.6585,4.0514c0.22679,0.55585 0.41233,1.06213 0.41233,1.12507c0,0.06795 -0.92618,0.11449 -2.27935,0.11449l-2.27933,0l-0.28177,-0.69938c-0.15496,-0.38464 -0.53359,-1.3288 -0.84139,-2.09812c-0.3078,-0.7693 -0.78366,-1.94607 -1.05748,-2.61504c-0.27383,-0.66897 -0.59542,-1.4626 -0.71465,-1.76364c-0.11924,-0.30103 -0.38351,-0.95784 -0.58728,-1.45956c-0.20377,-0.50172 -0.50201,-1.24063 -0.66278,-1.642c-0.16076,-0.40138 -0.43543,-1.08555 -0.61037,-1.52037c-0.17494,-0.43482 -0.41982,-1.04726 -0.54418,-1.36095c-0.12438,-0.3137 -0.26572,-0.59843 -0.31414,-0.63272c-0.08062,-0.05703 -1.25356,1.46543 -2.51977,3.27079c-0.28152,0.40138 -0.87298,1.22573 -1.31436,1.83189c-0.44138,0.60616 -0.96971,1.33978 -1.17408,1.63025c-1.23186,1.75098 -4.0414,5.65477 -4.53311,6.29866l-0.58054,0.76019l-1.68958,0c-0.92928,0 -1.6886,-0.04109 -1.68737,-0.09122l-0.00001,-0.00009zm61.201,-9.18926c0.0242,-0.08016 0.06583,-0.39214 0.09254,-0.69318c0.02671,-0.30103 0.05555,-0.54733 0.06407,-0.54733c0.00878,0 0.03348,-0.1642 0.05542,-0.36489c0.02194,-0.20069 0.08978,-0.80276 0.15071,-1.33792c0.36281,-3.18763 0.45253,-4.33177 0.39809,-5.07583c-0.0331,-0.45276 -0.02269,-0.82323 0.0232,-0.82323c0.04589,0 0.22228,0.13676 0.39194,0.30394c0.16964,0.16716 0.35117,0.30399 0.40338,0.30407c0.18975,0.00024 -0.31352,5.3132 -0.57031,6.02084c-0.04852,0.13375 -0.24006,0.69068 -0.42559,1.23752c-0.1855,0.54683 -0.4026,1.02297 -0.48242,1.05807c-0.08275,0.03635 -0.12623,0.00121 -0.10106,-0.08203l0.00003,-0.00001zm4.64275,-0.62026c-0.43159,-0.50572 -0.55734,-0.73872 -0.55734,-1.03275c0,-0.5585 0.29734,-2.73037 0.42887,-3.13261c0.32673,-0.99914 1.20879,-3.10334 1.77704,-4.23921c0.16733,-0.33448 0.46059,-0.93655 0.65169,-1.33792c0.1911,-0.40138 0.38435,-0.78451 0.42944,-0.85141c0.04514,-0.06694 0.23941,-0.45004 0.43186,-0.85141c0.19243,-0.40138 0.4292,-0.89398 0.52613,-1.09468c0.25762,-0.53331 0.71617,-2.06647 0.89926,-3.00658c0.37964,-1.94952 0.50968,-6.22697 0.23213,-7.63609c-0.17335,-0.8801 -0.54074,-2.41952 -0.97245,-4.07463c-0.38397,-1.47214 -0.38509,-1.57223 -0.01793,-1.62044c0.16436,-0.02155 0.55683,0.05373 0.87216,0.16736c0.65192,0.23494 0.54423,0.01006 1.37382,2.87019c1.05351,3.63233 1.03139,3.49257 1.03609,6.5497c0.00376,2.12719 -0.03661,2.96694 -0.17911,3.77055c-0.17061,0.96217 -0.68092,2.90906 -0.90862,3.46647c-0.05467,0.13375 -0.26117,0.7085 -0.45893,1.27713c-0.53102,1.52686 -0.66067,1.84028 -2.81645,6.80909c-1.08786,2.50741 -2.02572,4.57274 -2.08411,4.58962c-0.05843,0.01695 -0.35696,-0.26317 -0.66349,-0.62235l-0.00005,0zm-13.09786,-0.74797c-0.00752,-0.26424 -0.02182,-0.64463 -0.03185,-0.84532c-0.01003,-0.20069 -0.02784,-0.76171 -0.0395,-1.24672l-0.02119,-0.88181l-2.7974,0c-2.82911,0 -3.05282,-0.02816 -3.96915,-0.49868c-0.24751,-0.12714 -0.48062,-0.2311 -0.518,-0.2311c-0.03737,0 -0.98141,-0.51773 -2.09782,-1.15052c-1.8939,-1.07345 -2.08674,-1.21428 -2.87914,-2.1023c-1.60221,-1.79559 -3.12943,-4.06497 -4.00012,-5.944l-0.44453,-0.9593l-0.03335,-1.75193l-0.03335,-1.75192l-0.47792,-0.92011c-0.4416,-0.85019 -0.47792,-0.98333 -0.47792,-1.75207c0,-1.50794 0.39683,-4.02762 0.81841,-5.19643c0.15683,-0.43484 0.45363,-1.09164 0.65954,-1.45957c0.33077,-0.59101 0.37153,-0.75047 0.34979,-1.36835c-0.0173,-0.49115 0.01517,-0.70257 0.10884,-0.71013c0.07348,-0.00575 0.6238,-0.00144 1.22303,0.01006c1.1687,0.02169 1.00938,0.077 2.39045,-0.82988c0.22073,-0.14495 0.50736,-0.26386 0.63696,-0.26423c0.52927,-0.00144 1.07243,-0.28423 1.53436,-0.79861c0.44264,-0.49289 0.52976,-0.5389 1.02566,-0.54162c1.20765,-0.00718 1.69058,-0.27604 4.54806,-2.53719c0.67507,-0.53419 1.63006,-0.98713 2.0813,-0.98713c0.34254,0 1.22531,0.60576 1.38691,0.95169c0.0973,0.20833 -0.05178,0.42198 -1.18676,1.70123c-1.5252,1.719 -2.04581,2.25986 -3.30043,3.42873c-0.51225,0.47726 -1.01641,0.95982 -1.12035,1.07237c-0.10395,0.11248 -0.30374,0.29806 -0.44401,0.41227c-0.27717,0.22566 -0.40964,0.34104 -1.21047,1.05437c-0.70317,0.62632 -2.0194,1.69178 -3.1242,2.52897c-0.93562,0.70898 -2.17067,2.06742 -3.18097,3.49876l-0.59526,0.84331l0.01254,1.67868c0.00627,0.93917 0.05993,1.74646 0.12075,1.83255c0.05968,0.08461 0.14302,0.39351 0.18521,0.6864c0.17845,1.23874 1.12168,3.19534 2.14921,4.45821c1.35915,1.67043 5.53891,5.07941 7.14423,5.82676c0.78877,0.3672 1.54668,0.40261 2.61684,0.12225c1.46184,-0.38299 1.89737,-0.82252 1.82027,-1.83698l-0.03548,-0.46699l0.54238,-0.0362c0.5076,-0.0339 0.54993,-0.01437 0.66001,0.30407c0.14585,0.42192 0.51437,2.01031 0.72353,3.11856c0.16789,0.88958 0.18294,0.74445 -0.3152,3.04041c-0.20063,0.92472 -0.38499,1.15317 -0.40347,0.49996l-0.00043,-0.00052zm-1.2305,-9.16665c-0.52037,-0.33343 -1.08783,-0.8517 -1.68527,-1.53917c-0.5309,-0.61092 -1.21025,-1.64149 -1.21154,-1.83791c0,-0.05488 -0.06821,-0.2482 -0.15089,-0.42966c-0.2762,-0.60659 -0.40442,-1.67122 -0.33251,-2.76091c0.12984,-1.96763 0.33269,-3.58157 0.45605,-3.62869c0.06721,-0.02571 0.29868,-0.20734 0.51435,-0.40371c0.21566,-0.19637 0.42995,-0.35703 0.47617,-0.35703c0.08928,0 0.26036,0.87795 0.36749,1.88527c0.11097,1.04325 0.50409,3.33447 0.76176,4.43952c0.08576,0.36794 0.1936,0.83317 0.23956,1.03386c0.20397,0.89069 0.66194,2.6228 0.84612,3.20011c0.11072,0.34719 0.16967,0.62811 0.13092,0.62428c-0.03874,-0.00431 -0.22425,-0.10544 -0.41221,-0.22596zm-40.58308,-16.59761c0,-0.22355 0.61131,-1.90833 0.73372,-2.02221c0.03599,-0.03347 0.27971,-0.36128 0.54166,-0.72853c0.89078,-1.24887 4.07434,-4.79837 5.72413,-6.38212c0.14209,-0.13633 0.52783,-0.52166 0.8572,-0.85614c0.32936,-0.33449 0.90089,-0.90919 1.27004,-1.27713c0.36915,-0.36792 0.75342,-0.75107 0.85392,-0.85141c0.49168,-0.49091 1.17899,-1.14407 1.80313,-1.71355c0.37952,-0.34629 0.83596,-0.77289 1.01432,-0.94801c0.80799,-0.7933 2.73227,-2.3253 2.92073,-2.3253c0.0662,0 0.0968,0.29009 0.07749,0.73805c-0.03511,0.82103 0.06319,0.70863 -1.25245,1.43202c-1.84068,1.01211 -1.98024,1.13547 -4.52485,3.99964c-2.85511,3.21367 -6.244,7.31005 -7.34821,8.88228c-0.19506,0.27773 -0.45074,0.63077 -0.56816,0.78453c-0.11749,0.15374 -0.36005,0.51215 -0.53916,0.79647c-0.31901,0.50639 -0.33828,0.51694 -0.94462,0.51694c-0.34042,0 -0.61896,-0.02054 -0.61896,-0.04554l0.00006,0.00001zm16.36153,-0.07039c-0.38066,-0.10932 -0.48293,-0.15835 -1.37618,-0.66013c-0.64411,-0.36182 -0.95107,-0.38937 -1.55607,-0.13963c-0.97406,0.40205 -1.58626,0.08706 -2.12123,-1.09118c-0.59125,-1.30227 -0.46008,-1.208 -1.16575,-0.83785c-0.72639,0.38101 -0.62795,0.42377 -1.92697,-0.83696c-0.9186,-0.89152 -0.97325,-0.99491 -1.14799,-2.17206c-0.05743,-0.38721 -0.03599,-0.45028 0.17573,-0.51527c0.34243,-0.10516 1.91512,-0.09165 2.06519,0.01767c0.06896,0.05028 0.14062,0.33676 0.15924,0.6367c0.0331,0.5334 0.042,0.54547 0.40542,0.55144c1.4462,0.02385 1.47803,0.03232 1.68897,0.45001c0.45532,0.90168 1.13038,2.03308 1.21428,2.03512c0.04953,0.00122 0.48418,-0.22159 0.96595,-0.49512c0.7989,-0.45356 0.91089,-0.48627 1.27296,-0.37173c0.21835,0.0691 0.70418,0.34627 1.07963,0.61597l0.68263,0.49037l0.55535,-0.40411c0.94332,-0.68644 0.96807,-0.68503 2.76394,0.15676l0.82851,0.38835l0.58953,-0.19635c0.32424,-0.10803 0.61079,-0.17199 0.6368,-0.14222c0.02595,0.02974 -0.08865,0.45722 -0.2548,0.94983l-0.30208,0.89566l-0.82861,-0.04238c-0.82851,-0.04238 -1.23662,0.06307 -2.1879,0.56572c-0.41903,0.22138 -1.67414,0.30705 -2.21653,0.15131l0,0.00006zm-19.36056,-0.99846c-0.3658,-0.15307 -0.36472,-0.24012 0.00878,-0.73622c0.16561,-0.21975 0.41509,-0.56374 0.55438,-0.76443c0.38484,-0.55445 4.19426,-4.89172 5.02253,-5.71848c0.4011,-0.40036 0.88585,-0.89214 1.07723,-1.09283c0.19138,-0.20069 0.78281,-0.77196 1.31431,-1.26947c0.5315,-0.49753 0.96636,-0.97479 0.96636,-1.06057c0,-0.17199 -0.36891,-0.97097 -0.58089,-1.25807c-0.35069,-0.47497 -0.72481,-1.46699 -0.86115,-2.28341c-0.17786,-1.06505 -0.18886,-2.13515 -0.0415,-4.04138c0.09467,-1.22566 0.69613,-5.53416 0.79941,-5.72703c0.02094,-0.03922 0.11423,-0.49352 0.20733,-1.00968c0.09304,-0.51616 0.19282,-1.00904 0.2217,-1.09526c0.03072,-0.0918 -0.3642,-0.54473 -0.95311,-1.093c-1.3795,-1.28431 -2.03523,-2.13099 -2.94812,-3.80658c-0.42905,-0.78752 -0.81608,-1.51543 -0.86006,-1.61758c-0.04401,-0.10214 -0.24864,-0.51414 -0.45479,-0.91551c-0.76983,-1.49894 -0.92596,-2.00108 -0.87092,-2.80107c0.04702,-0.68289 0.36013,-1.61952 0.64832,-1.93919c0.34311,-0.38059 1.27237,-0.89279 1.97821,-1.09039c1.05946,-0.29658 3.20185,-0.37826 5.16456,-0.19691c1.54961,0.14323 2.11336,0.25706 3.38135,0.68302c0.35033,0.11766 0.91142,0.23748 1.24688,0.2662c0.57013,0.04884 0.64633,0.02212 1.16777,-0.4084c0.30681,-0.25335 1.15498,-1.04001 1.88484,-1.74812c2.02834,-1.96793 3.02469,-2.79566 3.58536,-2.97856c0.276,-0.09007 0.6093,-0.20246 0.74067,-0.24983l0.23886,-0.08619l0,6.52141c0,3.58679 -0.03962,6.52143 -0.0879,6.52143c-0.07949,0 -1.20476,-2.50755 -1.66475,-3.70974c-0.10244,-0.26758 -0.27803,-0.70546 -0.39031,-0.97303c-0.12451,-0.29671 -0.26779,-1.10343 -0.36728,-2.06772c-0.08978,-0.86966 -0.18713,-1.71804 -0.21645,-1.88529c-0.02934,-0.16723 -0.07774,-0.50932 -0.10758,-0.76019c-0.03273,-0.2747 -0.1121,-0.45611 -0.19965,-0.45611c-0.39393,0 -3.94519,3.94044 -4.98763,5.5342c-1.05905,1.61916 -2.30765,4.32739 -3.17271,6.88166c-0.14905,0.44008 -0.27129,0.85058 -0.27164,0.91224c-0.00033,0.06163 -0.06219,0.24892 -0.13732,0.41616c-0.30454,0.67763 -1.14943,3.84765 -1.41016,5.29093c-0.09667,0.53518 -0.22275,1.13725 -0.28014,1.33794c-0.16695,0.58377 -0.22375,3.77573 -0.09203,5.1693c0.06645,0.70243 0.17692,1.94762 0.24554,2.7671c0.12501,1.49292 0.21121,1.7158 0.50602,1.30881c0.07222,-0.0997 0.71102,-0.68469 1.41962,-1.30009c0.70862,-0.6154 1.56051,-1.36857 1.89308,-1.67369c0.91855,-0.84272 1.65092,-1.46701 1.721,-1.46701c0.12012,0 0.06219,0.9276 -0.06984,1.11798c-0.07297,0.1053 -0.65819,0.67293 -1.30046,1.26146c-0.64228,0.58851 -1.19166,1.10122 -1.22085,1.13935c-0.02921,0.03807 -0.5308,0.50694 -1.11468,1.04179c-0.58389,0.53487 -1.10938,1.03323 -1.16776,1.10748c-0.05843,0.07427 -0.82275,0.8383 -1.69857,1.69786c-0.87582,0.85957 -1.64473,1.62008 -1.70866,1.69003c-0.06395,0.06996 -0.63551,0.67451 -1.27014,1.34348c-1.07559,1.13377 -2.23905,2.3909 -4.19318,4.53074c-0.85396,0.93509 -0.84347,0.9291 -1.29431,0.74045l0.00043,0.00004zm9.60259,-28.77631c0.0884,-0.11708 0.41046,-0.76019 0.71575,-1.42916c0.30528,-0.66896 0.59612,-1.27315 0.64633,-1.34262c0.05015,-0.06953 0.23452,-0.49208 0.40959,-0.93915l0.31831,-0.81284l-0.92309,-0.75799c-0.5077,-0.41689 -0.94816,-0.79855 -0.97879,-0.84812c-0.05555,-0.08993 -0.45129,-0.2175 -1.62654,-0.52445c-0.77806,-0.20322 -0.89053,-0.32023 -0.71999,-0.74907c0.12911,-0.32464 0.13034,-0.32494 1.05684,-0.25617c0.81394,0.06048 1.23315,0.17575 2.0885,0.5746c1.28122,0.59743 1.95998,0.71882 2.3562,0.42138c0.29987,-0.22511 0.8817,-0.90911 0.8817,-1.03652c0,-0.04094 -0.6091,-0.1675 -1.35354,-0.28127c-0.74446,-0.11378 -1.66983,-0.2671 -2.0564,-0.34074c-0.70872,-0.13504 -1.97196,-0.08016 -2.85353,0.12383c-0.26275,0.06077 -0.83601,0.17789 -1.27392,0.26021c-1.10775,0.20822 -1.1514,0.24432 -1.06121,0.87793c0.21461,1.50764 0.94406,3.14845 2.18072,4.90522c0.53494,0.75993 1.86631,2.3678 1.96063,2.3678c0.0395,0 0.14408,-0.09582 0.23245,-0.21286l0,-0.00001zm51.64276,26.64335l-0.83193,-0.30744l0.3542,-0.43512c0.19481,-0.23932 0.4136,-0.51034 0.48622,-0.6023c0.0726,-0.09194 0.35517,-0.56044 0.62788,-1.04109c1.32906,-2.34239 1.9884,-5.2107 2.47956,-10.7868c0.28879,-3.27864 0.97731,-7.37638 1.44387,-8.59334c0.08087,-0.2108 0.14695,-0.43409 0.14695,-0.49618c0,-0.19122 1.3781,-2.96266 1.92892,-3.87918c1.49623,-2.48958 2.75312,-3.75798 4.91843,-4.96345c0.87582,-0.4876 1.69994,-0.92527 1.83138,-0.97262c0.32047,-0.1155 0.46334,-0.45541 0.38353,-0.91264c-0.08225,-0.47108 -0.27661,-0.53415 -1.68411,-0.54644c-0.98324,-0.00862 -1.10079,0.01652 -1.59241,0.3406c-0.82823,0.54591 -1.19151,0.88882 -2.39697,2.26252c-0.99668,1.1358 -1.73921,2.09217 -2.6669,3.43501c-1.68455,2.4384 -3.03534,6.28442 -3.57899,10.19029c-0.58043,4.16994 -1.04812,6.61899 -1.59829,8.36941c-0.36426,1.15891 -1.14765,2.94223 -1.29249,2.94223c-0.18225,0 -0.83404,-0.35189 -0.83334,-0.44991c0,-0.05358 0.0983,-0.26163 0.21755,-0.46232c0.50666,-0.85256 1.26308,-3.01178 1.53395,-4.37871c0.24765,-1.24978 0.48972,-3.91632 0.57971,-6.3856c0.1328,-3.64457 0.19212,-4.57927 0.31986,-5.04009c0.0568,-0.20486 0.22099,-0.81034 0.36489,-1.34552c0.43919,-1.63336 1.49511,-3.86135 2.57375,-5.43067c1.53418,-2.23205 3.2574,-3.96851 4.82955,-4.86667c1.47871,-0.84478 2.42701,-1.11385 3.96478,-1.12497c1.46227,-0.01006 1.65402,0.06896 3.03055,1.25633l0.76414,0.65916l-0.05642,0.62673c-0.07561,0.83892 -0.60184,2.15084 -0.93338,2.32678c-3.07481,1.63169 -4.4256,2.59504 -5.76997,4.11508c-1.16503,1.31722 -1.38839,1.64983 -2.1275,3.168c-0.67927,1.39529 -0.85773,2.21054 -1.11822,5.10849c-0.06006,0.66897 -0.17904,1.70892 -0.26423,2.31099c-0.08514,0.60207 -0.20542,1.61465 -0.26716,2.25016c-0.06169,0.63553 -0.1548,1.40179 -0.20681,1.70283c-0.05204,0.30103 -0.14931,0.9031 -0.21623,1.33794c-0.36509,2.3722 -1.14104,6.06115 -1.40715,6.68968c-0.42506,1.00402 -1.81682,3.21461 -2.46537,3.91584c-0.37576,0.40628 -0.4068,0.40655 -1.47176,0.01293l-0.00005,0.00006zm-2.14057,-3.69c-3.14993,-2.17855 -3.50055,-2.36038 -5.00503,-2.59566c-1.09742,-0.17163 -2.68368,-0.29144 -4.1391,-0.31264c-0.36193,-0.00575 -0.54515,-0.10645 -1.04373,-0.5768c-0.53909,-0.50848 -0.62825,-0.55357 -0.82132,-0.41544c-0.36174,0.25884 -1.15674,0.48984 -1.9811,0.57565l-0.78181,0.08131l0.13579,-0.29171c0.15207,-0.32662 1.42291,-2.11975 1.9882,-2.8053c0.31537,-0.38247 0.45646,-0.45769 0.99201,-0.5289c0.50972,-0.06781 0.66101,-0.14222 0.82404,-0.40554c0.27043,-0.43679 0.75373,-1.60053 0.76217,-1.83525c0.00376,-0.11651 0.42448,-0.42683 1.08504,-0.80129l1.07818,-0.61122l0.16981,-1.41768c0.15676,-1.30889 0.23512,-1.56992 0.60677,-2.02126c0.07335,-0.08907 0.18863,-0.28026 0.25614,-0.42478c0.06758,-0.14453 0.35384,-0.60394 0.63627,-1.02089c0.28245,-0.41697 0.51352,-0.81493 0.51352,-0.88437c0,-0.28046 0.45728,-2.40635 0.61535,-2.86068c0.09316,-0.26759 0.32351,-0.76019 0.51204,-1.09467c0.69258,-1.22877 0.77744,-1.8953 0.55759,-4.37974l-0.11974,-1.35324l0.27475,-0.49866c0.56523,-1.02584 0.418,-1.46769 -0.43484,-1.305c-0.79816,0.15228 -2.42832,0.55318 -2.97034,0.7305c-0.30618,0.10013 -0.83167,0.2694 -1.16776,0.37607c-0.33611,0.10674 -1.73827,0.621 -3.11595,1.14295c-1.95244,0.73971 -2.90624,1.17924 -4.32486,1.99297c-1.001,0.5742 -1.86894,1.04399 -1.92877,1.04399c-0.08739,0 -0.63671,-1.18398 -0.63671,-1.37249c0,-0.05057 0.39579,-0.24794 1.27392,-0.63527c0.26275,-0.11593 0.57327,-0.25722 0.69004,-0.31406c0.30589,-0.14887 4.18031,-1.60118 5.30803,-1.98968c0.52549,-0.18104 1.14653,-0.40319 1.38008,-0.49368c0.23356,-0.0905 1.06957,-0.36447 1.85781,-0.60888c1.60731,-0.49836 1.98865,-0.62507 2.60447,-0.86532c0.23551,-0.09194 0.51334,-0.16704 0.61741,-0.16704c0.10407,0 0.27812,-0.05445 0.38679,-0.1211c0.18735,-0.11493 0.18076,-0.15743 -0.1271,-0.82102c-0.52316,-1.12765 -0.93396,-1.72502 -1.13174,-1.64577c-0.15678,0.06278 -0.7862,0.36279 -1.34132,0.63923c-0.11673,0.05818 -0.71392,0.33544 -1.327,0.61619c-0.61308,0.28074 -1.32966,0.6178 -1.59241,0.74902c-0.26275,0.13116 -0.76435,0.37694 -1.11468,0.54606c-1.03152,0.49796 -1.242,0.6024 -1.88724,0.93633c-0.33734,0.17457 -0.64036,0.31741 -0.67341,0.31741c-0.12873,0 -2.27523,1.28522 -3.06584,1.83568c-0.23356,0.16261 -0.58548,0.4045 -0.78206,0.53752c-0.19657,0.13303 -0.62105,0.44254 -0.94331,0.68783c-0.32224,0.24528 -0.64856,0.4184 -0.72517,0.38473c-0.07661,-0.03362 -0.26937,-0.25667 -0.42839,-0.49555l-0.28914,-0.43432l0.31012,-0.28891c0.3355,-0.31256 3.94231,-2.37145 5.19347,-2.96463c0.98465,-0.46681 3.56133,-1.68079 4.24642,-2.00064c0.4671,-0.21809 1.17295,-0.56693 1.56852,-0.7752c0.39558,-0.20827 0.74744,-0.37868 0.78191,-0.37868c0.13266,0 1.60842,-0.83356 1.66655,-0.94132c0.0958,-0.1775 -0.43593,-1.22925 -1.06433,-2.10544c-0.50652,-0.70625 -2.10002,-2.36456 -2.64497,-2.75255c-0.19019,-0.13547 -0.18057,-0.16676 0.17106,-0.55781c0.68111,-0.75746 0.74604,-0.764 1.47582,-0.14846c0.35583,0.30011 0.69579,0.54567 0.75546,0.54567c0.05968,0 0.15496,-0.12311 0.21176,-0.27368c0.0568,-0.15051 0.14597,-0.35577 0.19816,-0.45611c0.37312,-0.71748 0.85903,-2.35529 1.06453,-3.5881c0.0558,-0.33448 0.18261,-1.10076 0.28192,-1.70283c0.19718,-1.19566 0.24166,-3.52843 0.10796,-5.66524c-0.10344,-1.65351 -0.12936,-1.70121 -0.73955,-1.36156c-1.29849,0.72278 -2.61124,2.22452 -4.12237,4.71583c-0.64921,1.07035 -1.38996,2.28817 -1.64608,2.70628c-0.25614,0.4181 -0.54187,0.76019 -0.63498,0.76019c-0.25461,0 -1.09351,-0.64423 -1.09372,-0.83995c0,-0.13834 0.86288,-1.73009 1.06142,-1.95755c0.02921,-0.03344 0.10081,-0.14912 0.15924,-0.25705c0.48387,-0.89441 1.07875,-1.64956 2.52441,-3.20461c0.92133,-0.99102 1.65308,-1.82714 1.62611,-1.85802c-0.10808,-0.12385 -1.1862,0.6717 -2.21373,1.63354c-1.29308,1.21041 -1.89721,1.83685 -3.32932,3.4522l-1.07405,1.21148l-0.2795,-0.41985c-0.15372,-0.23091 -0.2795,-0.47822 -0.2795,-0.54958c0,-0.23607 4.91917,-5.78073 5.83881,-6.58126c0.94026,-0.81844 1.11452,-0.94641 1.92156,-1.41105c0.57728,-0.33235 1.83736,-0.60488 2.2492,-0.48645c0.38457,0.11059 0.85695,0.69217 1.21667,1.49796c0.16068,0.35993 0.37029,0.83086 0.46581,1.04647c0.09554,0.21563 0.3293,0.91201 0.51951,1.54753c0.5443,1.81854 0.54441,3.85341 0,6.96618c-0.20733,1.18627 -0.59314,2.62532 -0.75574,2.81897c-0.05341,0.0635 -0.09705,0.2136 -0.09705,0.33346c0,0.11981 -0.52997,0.81872 -1.17772,1.55305c-0.64775,0.73433 -1.1613,1.38665 -1.14123,1.44959c0.02006,0.06292 0.55611,0.80813 1.19119,1.65598c0.80622,1.07634 1.20668,1.52353 1.327,1.48185c0.17011,-0.0589 1.01633,-0.44856 1.68282,-0.77482c0.18852,-0.09223 0.66624,-0.30418 1.06161,-0.47089c0.39538,-0.1667 0.8144,-0.35409 0.93118,-0.41642c0.35202,-0.18788 2.17726,-0.86373 3.00636,-1.11322c0.42735,-0.12857 1.13441,-0.24573 1.57123,-0.26032c0.73528,-0.02457 0.80939,-0.00431 0.99881,0.27755c0.11247,0.16725 0.20567,0.45356 0.20698,0.63624c0.00251,0.37332 -0.05116,0.39733 -1.1654,0.52054c-0.79776,0.08821 -3.64965,0.71688 -4.35258,0.95947c-0.26275,0.09065 -0.6927,0.23826 -0.95544,0.32796c-0.64326,0.21957 -2.08664,0.90602 -2.40048,1.14162c-0.13943,0.10473 -0.25352,0.24498 -0.25352,0.31177c0,0.0668 0.23165,0.46235 0.51479,0.87903c0.28315,0.41666 0.64596,1.01755 0.8063,1.33531c0.29142,0.5776 0.29164,0.57775 0.86947,0.57775c1.41141,0 2.61753,-0.23889 3.39768,-0.67296c0.41686,-0.23193 0.81554,-0.42171 0.88597,-0.42171c0.22127,0 0.74125,0.49092 0.90555,0.85496c0.26791,0.59359 0.14057,2.05565 -0.17024,1.95469c-0.08238,-0.02672 -0.40062,-0.14711 -0.70712,-0.2674c-0.46171,-0.18124 -0.86218,-0.21461 -2.33553,-0.1946l-1.7779,0.02413l-0.06194,0.74143c-0.05981,0.7151 -0.15021,0.97405 -0.92945,2.66087c-0.18457,0.39954 -0.33558,0.8275 -0.33558,0.951c0,0.12355 0.1672,0.80313 0.37156,1.51027c0.20437,0.70714 0.37144,1.37387 0.37129,1.48162c0,0.10774 -0.16735,0.51337 -0.37157,0.90138c-0.2042,0.388 -0.37128,0.72928 -0.37128,0.75837c0,0.02902 -0.15525,0.34107 -0.34503,0.69328c-0.33009,0.61268 -0.34773,0.70881 -0.40784,2.22159c-0.07862,1.97862 -0.10695,2.04215 -1.97703,4.43147c-0.26191,0.33464 -0.30733,0.53487 -0.40593,1.78947l-0.06834,0.86918l-0.57288,0.08203c-0.31508,0.04511 -0.71243,0.16177 -0.88301,0.25926c-0.4132,0.23617 -0.95354,0.93629 -1.37685,1.78398c-0.19016,0.38081 -0.39355,0.72623 -0.45195,0.76759c-0.05843,0.04137 -0.14934,0.20519 -0.20206,0.36406c-0.05266,0.15887 -0.20503,0.31467 -0.33847,0.34619c-1.1199,0.26453 -1.05445,0.30678 0.4138,0.26715c0.82813,-0.02241 1.75968,0.00575 2.07013,0.06105c0.77645,0.13978 1.94494,0.58425 2.58148,0.98181c0.29194,0.18234 0.72189,0.45078 0.95544,0.59654c1.16074,0.72442 3.17042,3.0522 3.48209,4.03328c0.09354,0.29441 0.03022,0.26735 -0.93424,-0.39973l0.00001,-0.00004zm-32.81116,-7.26823l-0.64457,-0.03563l-0.25534,-0.5725c-0.14043,-0.31488 -0.27145,-0.61041 -0.29115,-0.65676c-0.01969,-0.0464 0.1464,-0.11651 0.36911,-0.15575c0.87548,-0.15463 2.28414,-0.4929 3.16507,-0.76006c0.20636,-0.06263 2.81325,-2.91946 2.81325,-3.08303c0,-0.04496 -0.39411,-0.11737 -0.87582,-0.16105c-1.62185,-0.14685 -3.31293,-0.334 -3.99797,-0.44245c-0.76555,-0.12125 -0.96584,-0.29431 -1.98153,-1.71255c-0.61424,-0.85765 -0.66873,-1.09145 -0.46461,-1.99336c0.37396,-1.65242 1.26142,-2.93597 3.05778,-4.42252c0.76166,-0.6303 2.35989,-1.59819 2.63902,-1.59819c0.07686,0 0.22271,-0.04942 0.3241,-0.10975c0.28772,-0.17134 0.98487,-0.36068 1.53366,-0.41652c0.55545,-0.05646 0.75686,0.09797 0.88302,0.67713c0.06645,0.305 0.03335,0.35274 -0.38983,0.56238c-1.35563,0.67157 -3.75233,2.08971 -3.91264,2.31511c-0.02921,0.04109 -0.24416,0.23498 -0.47772,0.43094c-0.64294,0.53948 -0.86297,0.81501 -1.27148,1.59227c-0.39473,0.75104 -0.49758,1.31995 -0.21629,1.19628c0.08677,-0.03821 0.52864,-0.59744 0.98199,-1.2429c0.45335,-0.64545 0.87204,-1.21376 0.93043,-1.26291c0.05843,-0.04913 0.47415,-0.09022 0.92391,-0.09122c0.79797,-0.00144 0.93,-0.03764 1.86165,-0.50562c0.24751,-0.12426 0.48395,-0.22603 0.52542,-0.22603c0.0415,0 0.60791,-0.30819 1.25877,-0.68486c1.24709,-0.72172 1.42831,-0.94752 1.42831,-1.77963c0,-0.17526 0.04827,-0.35282 0.10721,-0.39458c0.12999,-0.09208 0.60157,0.511 0.92786,1.18652c0.22607,0.46801 0.23886,0.62905 0.23886,3.00704l0,2.51254l-0.64783,0.8818c-0.35631,0.48499 -0.62263,0.91067 -0.59181,0.94598c0.03085,0.03534 0.69258,0.06278 1.47058,0.06091c1.02873,-0.00287 1.52033,-0.0543 1.80239,-0.19035c0.22981,-0.1109 0.74591,-0.63446 1.26665,-1.28504l0.87882,-1.09796l0.67793,0c0.82962,0 0.86133,-0.21563 -0.40461,2.75268c-0.92875,2.1777 -0.94558,2.20665 -1.34277,2.31097c-0.22124,0.05804 -1.57267,0.10559 -3.00318,0.10559c-2.13165,0 -2.64539,0.0329 -2.84731,0.18244c-0.13552,0.10042 -0.39159,0.5252 -0.56905,0.9441c-0.35476,0.83741 -1.42059,2.14315 -2.14779,2.63126c-0.79619,0.53441 -1.80156,0.69204 -3.73249,0.58525l0,0.00004zm-13.62389,-6.93273c-0.5156,-0.62297 -0.99192,-1.77361 -1.04901,-2.53407l-0.04677,-0.62343l0.65598,-0.7446c0.70086,-0.79555 0.90396,-0.90593 1.55453,-0.84492l0.41453,0.03893l0.05304,0.78537l0.05304,0.78537l0.44379,0.12685c0.24409,0.06982 0.47882,0.16773 0.52163,0.21771c0.09918,0.11579 0.46774,1.30899 0.46774,1.51426c0,0.08519 -0.46542,0.51148 -1.03426,0.94731c-1.24425,0.95331 -1.48678,0.9928 -2.03429,0.33127l0.00005,-0.00006zm13.63814,-14.89042c-0.04088,-0.68806 -0.14184,-1.85322 -0.22433,-2.58925c-0.0825,-0.73603 -0.19938,-1.88543 -0.25973,-2.55424c-0.16279,-1.80399 -0.52811,-4.22774 -0.66593,-4.41797c-0.07937,-0.10961 -0.24419,-0.14371 -0.48161,-0.09955c-0.26747,0.04971 -0.44047,-0.00037 -0.66842,-0.19342c-0.16916,-0.14323 -0.30756,-0.30016 -0.30756,-0.3486c0,-0.10386 1.42747,-1.21153 2.33553,-1.81227c0.20435,-0.13518 0.4653,-0.31366 0.57986,-0.39658c0.89586,-0.64841 3.0815,-1.9571 3.87887,-2.32254c0.26275,-0.12038 0.57327,-0.2686 0.69004,-0.32929c0.58836,-0.3058 2.51569,-0.74959 3.98101,-0.91666c2.19516,-0.25029 5.10155,-0.28404 5.73266,-0.06651c1.11413,0.38391 1.93981,0.73255 2.36063,0.99677c0.10144,0.06364 0.23234,0.11579 0.291,0.11579c0.18078,0 1.59479,0.75672 1.59479,0.85345c0,0.20428 -1.23166,0.74366 -1.84538,0.80816c-0.35716,0.03749 -1.41374,-0.00287 -2.34795,-0.08935c-0.93422,-0.08677 -2.04678,-0.16121 -2.47237,-0.16555l-0.7738,-0.00718l-0.96569,2.12854c-2.0721,4.56724 -2.97599,6.58501 -3.8239,8.53605c-0.48494,1.11584 -0.92358,2.03264 -0.97474,2.03732c-0.05316,0.00431 -0.05617,-2.40214 -0.00752,-5.61693c0.04727,-3.09398 0.08213,-5.74877 0.07761,-5.89953c-0.01705,-0.57338 -0.07172,-0.6099 -0.68414,-0.45723c-1.62055,0.40396 -2.05262,0.71635 -2.21989,1.60488c-0.04815,0.25542 -0.16421,0.82018 -0.25804,1.25501c-0.09379,0.43482 -0.21279,1.00954 -0.26433,1.27711c-0.05153,0.26759 -0.17241,0.81493 -0.2686,1.21632c-0.09617,0.40138 -0.26225,1.16765 -0.36901,1.70283c-0.1067,0.53517 -0.29671,1.41092 -0.42211,1.94608c-0.1254,0.53518 -0.26776,1.21935 -0.31635,1.52038c-0.10407,0.64443 -0.73233,3.42775 -0.78823,3.49179c-0.02119,0.02428 -0.07197,-0.51886 -0.11285,-1.20692l0.00046,-0.00089zm18.5853,-6.03768c-0.45948,-0.53051 -0.81772,-1.01151 -0.7961,-1.0689c0.11887,-0.31559 1.06462,-1.84802 1.28717,-2.08566c0.29654,-0.31664 0.85782,-0.45656 1.37347,-0.34242c0.29087,0.06436 0.39329,0.18025 0.59816,0.6768c0.30197,0.73189 0.4286,1.71659 0.30896,2.40258c-0.08313,0.47678 -0.13509,0.53775 -0.7474,0.87726c-1.12164,0.62192 -1.0791,0.63159 -2.02425,-0.45966z" id="svg_5"/>
   </g>
  </g>
 </g>
</svg>